<svg width="115" height="117" viewBox="0 0 115 117" fill="none" xmlns="http://www.w3.org/2000/svg">
<g clip-path="url(#clip0)">
<rect width="115" height="117" rx="15" fill="#506F80"/>
<path d="M63.7609 60.0044L67.1343 60.9629L66.5855 62.7485L65.2976 62.0899L65.9562 61.4313L63.7609 60.0044Z" fill="#F06B31"/>
<path d="M63.673 63.634L65.799 61.4475L63.7327 60.0833L35.4509 31.9154L34.0218 33.3159L62.3185 61.7309L63.673 63.634Z" fill="black"/>
<path d="M34.6001 30.5526L34.2773 30.5472L25.8561 22.1367L24.1174 23.6907L32.7118 32.1543L32.7064 32.4771L33.0846 32.5784L33.0994 32.8255L33.4222 32.831L33.437 33.0781L33.6639 33.1389L35.2497 31.4562L35.2348 31.2091L34.9323 31.128L34.9175 30.8808L34.615 30.7998L34.6001 30.5526Z" fill="black"/>
<path d="M63.7262 74.603L59.6391 71.2359C59.6391 71.2359 58.9877 70.6726 58.2648 69.9928C57.4013 69.1807 56.4358 68.2022 56.3572 67.8192C56.2128 67.1156 60.0247 69.6362 60.0247 69.6362L60.5419 69.9928L63.7262 72.1881L64.0901 72.9565L63.7262 74.603Z" fill="#F06B31"/>
<path d="M61.8804 68.1458L64.5429 72.5649L65.2573 70.7325L62.8213 66.7958C62.8213 66.7958 60.1868 63.0617 60.0655 63.7697C59.9441 64.4776 61.8804 68.1458 61.8804 68.1458Z" fill="#F06B31"/>
<path d="M54.8282 113.933L21.0344 69.3105H97.3792L63.2486 113.933V159.942L65.1572 164.101L85.3661 168H32.7106L52.695 164.101L54.8282 159.942V113.933Z" stroke="black"/>
<path d="M56.4517 112.501L49.5976 103.619C49.5976 103.619 55.2315 104.984 58.8838 104.796C64.0509 104.531 71.4864 100.837 71.4864 100.837L61.2053 112.929C61.2053 112.929 59.8875 114.028 58.8838 114C57.7585 113.967 56.4517 112.501 56.4517 112.501Z" fill="black"/>
<path d="M57.6677 90.4566C58.8612 89.3168 61.2053 88.1023 61.2053 88.1023C61.2053 88.1023 61.8686 87.0322 61.537 84.4639C61.3765 83.2212 61.8686 82.0026 61.8686 82.0026C61.8686 82.0026 53.9073 79.8778 49.5976 79.8622C45.2032 79.8463 42.4949 81.1361 38.1005 81.1464C33.2066 81.1577 28.4827 76.7588 28.4827 76.7588L37.6583 88.1023L43.628 90.8846L42.5225 86.6041C42.5225 86.6041 42.4943 85.1408 43.1858 84.8918C43.989 84.6027 44.844 86.283 44.844 86.283L48.8238 92.7039L55.5673 93.1319C55.5673 93.1319 56.7027 91.3782 57.6677 90.4566Z" fill="black"/>
<path d="M88.0689 78.578C87.6958 78.8831 84.0032 81.3558 82.4308 81.1464C82.4564 83.7229 81.8747 85.1022 80.8832 87.5672L88.0689 78.578Z" fill="black"/>
<path d="M62.177 62.3923L65.6196 66.7009L66.1191 64.6587L62.9843 60.8294C62.9843 60.8294 59.6677 57.2427 59.6386 58.01C59.6095 58.7772 62.177 62.3923 62.177 62.3923Z" fill="#F06B31"/>
<path d="M58.8842 74.9055L62.3269 79.2141L62.8263 77.1719L59.6916 73.3426C59.6916 73.3426 56.375 69.7559 56.3459 70.5232C56.3168 71.2904 58.8842 74.9055 58.8842 74.9055Z" fill="#F06B31"/>
<path d="M24.0241 23.3493L25.6922 21.8362L9.8896 6.0234L8.21989 7.64631L24.0241 23.3493Z" fill="white"/>
<path d="M80.4701 71.8007C81.1698 70.2125 82.2512 56.034 82.4582 53.8404C83.5335 42.4446 82.1914 43.9597 82.4108 41.3784C82.6301 38.7971 84.2363 31.7595 84.2363 31.7595C84.2363 31.7595 82.6795 34.2597 82.3328 35.3739L79.8846 42.9282C79.8846 42.9282 79.4076 40.3446 79.4662 38.6777C79.5482 36.345 80.783 32.8477 80.783 32.8477C77.3231 35.535 72.7599 43.5567 73.6859 48.1474C73.4994 47.8573 73.2467 45.6269 73.0081 44.3137C73.0081 44.3137 65.6803 62.8915 66.25 69.1922C66.8196 75.4929 71.3458 76.2392 73.9207 75.8185C76.4957 75.3979 79.7704 73.3889 80.4701 71.8007Z" fill="#F06B31"/>
<path d="M71.7689 77.1387C74.8488 77.359 80.6188 73.5123 80.6188 73.5123C80.6188 73.5123 82.4074 83.8445 79.1629 86.2527C75.633 88.8727 67.0521 86.2122 63.9584 83.0891C61.1613 80.2655 65.412 72.0243 65.412 72.0243C65.412 72.0243 68.2472 76.8867 71.7689 77.1387Z" fill="#F06B31"/>
<path d="M70.8193 87.7656C73.8908 88.5452 78.714 88.4597 79.8666 86.9799C79.8666 86.9799 77.8437 93.7582 74.4479 94.94C71.0522 96.1218 63.479 91.7536 62.8712 89.2934C62.2633 86.8333 62.8711 82.2866 62.8711 82.2866C63.7447 84.97 67.0643 86.8124 70.8193 87.7656Z" fill="#F06B31"/>
<path d="M67.6099 94.499C64.6555 93.1337 61.9206 90.2629 61.9803 88.6809C61.9803 88.6809 58.9264 89.6855 58.8778 90.9706C58.7833 93.4753 66.1634 100.537 68.9254 100.002C71.9975 99.4064 75.5833 95.5312 75.5833 95.5312C74.3254 96.8393 70.5366 95.8515 67.6099 94.499Z" fill="#F06B31"/>
<path d="M62.2132 97.0371C60.827 95.8271 57.9124 92.3355 58.1443 91.0343C58.1443 91.0343 56.1496 93.0306 55.9177 94.3318C55.6858 95.6331 60.6243 102.004 62.0977 102.516C63.5712 103.029 68.3491 100.742 68.3491 100.742C65.7467 100.278 63.5994 98.2471 62.2132 97.0371Z" fill="#F06B31"/>
<path d="M56.9336 98.0869C55.9243 96.3666 55.5497 95.2014 54.9184 94.1722C54.287 93.143 48.663 93.6314 48.663 93.6314C49.1835 96.789 47.7197 99.8943 50.8222 102.609C53.7266 105.15 61.8234 103.329 61.8234 103.329C61.8234 103.329 58.0932 100.063 56.9336 98.0869Z" fill="#F06B31"/>
<path d="M38.3214 89.1587C40.3413 89.7224 48.0718 94.7668 48.0718 94.7668C47.4035 99.555 48.6026 100.88 49.4848 102.528C49.4848 102.528 36.3015 88.595 38.3214 89.1587Z" fill="#F06B31"/>
<path d="M43.3738 86.0592C43.4335 84.4773 47.7211 93.5654 47.7211 93.5654L44.8041 91.7492C44.8041 91.7492 43.314 87.6411 43.3738 86.0592Z" fill="#F06B31"/>
<path d="M73.4783 42.3511L73.0741 43.3717C73.0741 43.3717 65.6429 32.5573 68.8044 26.5461C72.8749 18.8066 87.3401 21.1621 91.1134 24.7075C96.5858 29.8494 98.8006 32.922 93.0267 45.0389C91.5005 48.2417 88.0184 52.6184 88.0184 52.6184C88.0184 52.6184 90.8996 48.4887 92.1846 45.5555C97.501 33.4199 96.2689 30.6876 91.1621 25.8365C87.7791 22.6228 73.1114 19.7768 69.6018 27.216C66.9915 32.749 73.4783 42.3511 73.4783 42.3511Z" fill="#F06B31"/>
</g>
<defs>
<clipPath id="clip0">
<rect width="115" height="117" rx="15" fill="white"/>
</clipPath>
</defs>
</svg>
